<mxfile host="app.diagrams.net" modified="2023-10-11T23:34:13.575Z" agent="Mozilla/5.0 (Windows NT 10.0; Win64; x64; rv:109.0) Gecko/20100101 Firefox/118.0" etag="_x5sZml2kEC_VtDSwSBv" version="22.0.4" type="github">
  <diagram name="Page-1" id="GoFvGc1FE7TAy_r267X7">
    <mxGraphModel dx="1622" dy="1081" grid="0" gridSize="10" guides="1" tooltips="1" connect="1" arrows="1" fold="1" page="0" pageScale="1" pageWidth="827" pageHeight="1169" math="0" shadow="0">
      <root>
        <mxCell id="0" />
        <mxCell id="1" parent="0" />
        <mxCell id="tLaviW9UOQaf5jq06GIn-1" value="Banco de dados" style="shape=umlActor;verticalLabelPosition=bottom;verticalAlign=top;html=1;outlineConnect=0;fontSize=16;" vertex="1" parent="1">
          <mxGeometry x="185" y="170" width="30" height="60" as="geometry" />
        </mxCell>
        <mxCell id="tLaviW9UOQaf5jq06GIn-2" value="FuncionÃ¡rio" style="shape=umlActor;verticalLabelPosition=bottom;verticalAlign=top;html=1;outlineConnect=0;fontSize=16;" vertex="1" parent="1">
          <mxGeometry x="-53" y="157" width="30" height="60" as="geometry" />
        </mxCell>
        <mxCell id="tLaviW9UOQaf5jq06GIn-3" value="Aluno" style="shape=umlActor;verticalLabelPosition=bottom;verticalAlign=top;html=1;outlineConnect=0;fontSize=16;" vertex="1" parent="1">
          <mxGeometry x="40" y="81" width="30" height="60" as="geometry" />
        </mxCell>
        <mxCell id="tLaviW9UOQaf5jq06GIn-6" value="Gerenciar cadastro de aluno no sistema de uma faculdade" style="text;strokeColor=none;fillColor=none;html=1;align=center;verticalAlign=middle;whiteSpace=wrap;rounded=0;fontSize=16;" vertex="1" parent="1">
          <mxGeometry x="-105" y="-180" width="431" height="30" as="geometry" />
        </mxCell>
      </root>
    </mxGraphModel>
  </diagram>
</mxfile>
